<svg width="336" height="337" viewBox="0 0 336 337" fill="none" xmlns="http://www.w3.org/2000/svg">
<g filter="url(#filter0_dddd_59_2684)">
<circle cx="167.5" cy="171.03" r="113.131" fill="url(#paint0_linear_59_2684)"/>
</g>
<path d="M167.5 238.909L167.5 105.415M167.5 105.415C167.5 123.516 178.361 159.718 221.803 159.718M167.5 105.415C166.746 123.516 154.83 159.718 113.198 159.718" stroke="white" stroke-width="18.1009"/>
<path d="M320.957 201.573L320.042 205.422L311.701 203.44L310.135 210.031L318.475 212.013L317.561 215.863L297.147 211.011L298.062 207.162L306.461 209.158L308.027 202.567L299.628 200.571L300.543 196.722L320.957 201.573Z" fill="white"/>
<path d="M315.861 219.703L311.024 232.871L307.479 231.569L309.215 226.842L296.61 222.212L294.874 226.939L291.329 225.637L296.166 212.469L299.711 213.771L297.975 218.498L310.58 223.128L312.316 218.401L315.861 219.703Z" fill="white"/>
<path d="M309.009 236.313L302.157 249.777L298.791 248.064L301.32 243.095L285.986 235.292L287.78 231.766L303.114 239.569L305.643 234.6L309.009 236.313Z" fill="white"/>
<path d="M289.133 267.455L279.307 278.93L276.438 276.474L280.064 272.239L266.995 261.048L269.569 258.043L282.638 269.234L286.264 264.999L289.133 267.455Z" fill="white"/>
<path d="M276.415 281.187L273.504 283.866L267.698 277.559L262.714 282.146L268.519 288.454L265.608 291.133L251.399 275.695L254.31 273.015L260.156 279.367L265.141 274.78L259.295 268.428L262.206 265.748L276.415 281.187Z" fill="white"/>
<path d="M261.807 293.542L251.064 301.297L248.854 298.235L256.388 292.796L253.581 288.907L246.338 294.135L244.128 291.073L251.37 285.845L248.528 281.908L240.702 287.557L238.492 284.495L249.526 276.53L261.807 293.542Z" fill="white"/>
<path d="M209.069 297.782L212.731 296.285L215.112 302.112C215.293 302.556 215.561 302.868 215.915 303.047C216.25 303.234 216.686 303.218 217.222 302.999L221.44 301.276L218.448 293.95L222.11 292.454L230.045 311.878L222.609 314.916C221.61 315.324 220.675 315.544 219.803 315.576C218.931 315.609 218.143 315.477 217.44 315.182C216.725 314.912 216.106 314.507 215.583 313.965C215.041 313.431 214.619 312.794 214.316 312.054L214.044 311.388C213.719 310.593 213.626 309.757 213.764 308.88C213.91 308.022 214.352 307.226 215.088 306.493L214.884 305.994C214.207 306.184 213.596 306.142 213.052 305.868C212.49 305.601 212.076 305.144 211.812 304.497L209.069 297.782ZM222.869 304.772L219.372 306.2C218.484 306.563 217.892 307.042 217.596 307.638C217.307 308.253 217.318 308.939 217.628 309.698L217.764 310.031C218.028 310.678 218.486 311.138 219.138 311.412C219.797 311.704 220.57 311.669 221.458 311.306L224.954 309.878L222.869 304.772Z" fill="white"/>
<path d="M212.667 318.149L199.144 321.879L198.14 318.238L202.994 316.899L199.424 303.954L194.569 305.293L193.565 301.652L207.088 297.922L208.093 301.563L203.238 302.902L206.809 315.847L211.663 314.508L212.667 318.149Z" fill="white"/>
<path d="M187.516 312.916L178.625 314.264L177.035 303.772L180.591 303.233L180.942 305.545L181.475 305.464C181.595 304.658 181.951 303.937 182.542 303.302C183.136 302.686 184.104 302.276 185.448 302.073C186.396 301.929 187.312 301.972 188.196 302.202C189.08 302.432 189.88 302.846 190.597 303.445C191.318 304.063 191.934 304.859 192.445 305.833C192.959 306.826 193.321 308.014 193.531 309.397L194.268 314.257C194.471 315.601 194.463 316.815 194.244 317.899C194.007 319.006 193.607 319.966 193.043 320.779C192.459 321.595 191.72 322.253 190.826 322.752C189.934 323.272 188.916 323.618 187.77 323.792C186.584 323.971 185.497 323.934 184.509 323.68C183.523 323.445 182.652 323.031 181.895 322.439C181.142 321.866 180.526 321.14 180.05 320.263C179.576 319.405 179.26 318.452 179.101 317.405L179.047 317.049L182.959 316.456L183.013 316.812C183.202 318.057 183.67 318.946 184.418 319.479C185.149 320.035 186.097 320.225 187.263 320.048C188.369 319.881 189.221 319.368 189.819 318.509C190.419 317.67 190.583 316.352 190.311 314.554L189.646 310.168C189.161 306.967 187.614 305.564 185.006 305.96C183.841 306.136 183.008 306.576 182.508 307.278C181.991 308.003 181.812 308.889 181.971 309.937L186.95 309.182L187.516 312.916Z" fill="white"/>
<path d="M176.577 324.326L172.622 324.452L172.351 315.884L165.58 316.098L165.852 324.667L161.897 324.792L161.231 303.821L165.186 303.695L165.46 312.324L172.231 312.109L171.957 303.48L175.912 303.355L176.577 324.326Z" fill="white"/>
<path d="M158.279 324.206L143.229 322.894L143.557 319.131L149.111 319.616L150.606 302.475L154.547 302.819L153.053 319.959L158.607 320.444L158.279 324.206Z" fill="white"/>
<path d="M122.188 317.509L114.972 315.083C112.51 314.255 110.876 313.062 110.071 311.506C109.26 309.968 109.259 307.996 110.068 305.591L112.017 299.795C112.826 297.39 114.021 295.81 115.603 295.056C117.178 294.32 119.197 294.367 121.66 295.195L128.876 297.622L127.663 301.23L125.788 300.599L121.517 313.299L123.392 313.93L122.188 317.509ZM120.456 298.775C119.149 298.335 118.138 298.332 117.423 298.767C116.682 299.213 116.092 300.09 115.653 301.397L113.818 306.852C113.436 307.988 113.411 308.939 113.744 309.705C114.058 310.464 114.869 311.063 116.176 311.503L117.767 312.038L122.047 299.31L120.456 298.775Z" fill="white"/>
<path d="M104.17 310.641L91.4963 304.626L93.1155 301.214L97.665 303.373L103.422 291.242L98.8729 289.083L100.492 285.671L113.166 291.685L111.546 295.097L106.997 292.938L101.239 305.07L105.789 307.229L104.17 310.641Z" fill="white"/>
<path d="M87.022 276.745L90.3704 278.853L87.0172 284.18C86.7617 284.586 86.6641 284.985 86.7242 285.377C86.7675 285.758 87.0343 286.103 87.5248 286.412L91.3806 288.839L95.5961 282.142L98.9446 284.25L87.7671 302.007L80.9687 297.728C80.0554 297.153 79.332 296.52 78.7983 295.83C78.2646 295.14 77.9132 294.423 77.744 293.679C77.5472 292.941 77.5168 292.202 77.6526 291.461C77.7715 290.709 78.0438 289.995 78.4697 289.319L78.8529 288.71C79.3106 287.983 79.9362 287.42 80.7297 287.022C81.5126 286.642 82.4163 286.538 83.441 286.71L83.7284 286.254C83.1791 285.813 82.8577 285.292 82.7643 284.69C82.654 284.078 82.7852 283.476 83.1577 282.884L87.022 276.745ZM89.3687 292.035L86.1724 290.023C85.3606 289.512 84.6262 289.31 83.9693 289.416C83.3016 289.539 82.7496 289.947 82.3131 290.64L82.1215 290.945C81.7489 291.536 81.641 292.177 81.7976 292.866C81.9437 293.572 82.4225 294.18 83.2343 294.691L86.4306 296.703L89.3687 292.035Z" fill="white"/>
<path d="M72.3251 291.337L62.0274 283.001L64.4038 280.065L71.6261 285.912L74.6436 282.184L67.7009 276.564L70.0772 273.628L77.0199 279.249L80.0752 275.474L72.5733 269.402L74.9496 266.466L85.5268 275.028L72.3251 291.337Z" fill="white"/>
<path d="M66.5011 261.811C65.9717 261.267 65.4609 260.899 64.969 260.709C64.4487 260.518 63.962 260.462 63.5087 260.54C63.0271 260.618 62.5725 260.796 62.1447 261.072C61.7026 261.363 61.2882 261.697 60.9015 262.073L60.5147 262.449L57.7559 259.613L58.1426 259.237C59.9331 257.495 61.7752 256.623 63.6688 256.621C65.5342 256.618 67.3378 257.512 69.0795 259.303C70.7515 261.022 71.5523 262.891 71.482 264.911C71.4117 266.931 70.3739 268.916 68.3686 270.867L65.0167 274.127C64.057 275.061 63.0722 275.768 62.0622 276.249C61.0379 276.743 60.0311 276.998 59.0417 277.012C58.0379 277.041 57.0656 276.844 56.1246 276.421C55.1693 276.012 54.2737 275.378 53.4377 274.518C52.5738 273.63 51.9363 272.717 51.5254 271.779C51.1144 270.84 50.9295 269.905 50.9706 268.973C50.9978 268.027 51.2437 267.104 51.7083 266.206C52.159 265.294 52.8141 264.42 53.6735 263.584L54.0603 263.208L56.8191 266.044L56.4324 266.42C56.0743 266.768 55.758 267.16 55.4835 267.594C55.209 268.028 55.026 268.485 54.9346 268.964C54.8432 269.443 54.8788 269.939 55.0413 270.449C55.1895 270.974 55.5144 271.495 56.016 272.01C56.4758 272.483 56.966 272.801 57.4866 272.963C57.9929 273.14 58.5151 273.19 59.0532 273.112C59.5769 273.049 60.1022 272.872 60.6291 272.583C61.1277 272.293 61.599 271.932 62.043 271.5L65.8246 267.822C66.3116 267.348 66.714 266.859 67.0319 266.355C67.3354 265.864 67.5331 265.365 67.6249 264.858C67.7167 264.35 67.6813 263.841 67.5188 263.33C67.328 262.819 66.9888 262.312 66.5011 261.811Z" fill="white"/>
<path d="M46.6563 265.938L37.4791 253.938L40.4792 251.644L43.866 256.072L57.5329 245.62L59.9365 248.763L46.2696 259.215L49.6564 263.644L46.6563 265.938Z" fill="white"/>
<path d="M35.7047 250.357L28.5626 238.283L31.8132 236.36L34.3771 240.694L45.9349 233.857L43.3711 229.523L46.6217 227.6L53.7638 239.674L50.5132 241.597L47.9494 237.263L36.3915 244.1L38.9553 248.434L35.7047 250.357Z" fill="white"/>
<path d="M34.6994 231.421C32.2129 232.518 30.0098 232.747 28.0901 232.109C26.1624 231.452 24.7106 230.018 23.7346 227.805C22.7587 225.593 22.6821 223.563 23.5049 221.715C24.3196 219.848 25.9702 218.367 28.4567 217.27L32.7349 215.382C35.2945 214.253 37.5199 214.025 39.4111 214.698C41.2942 215.352 42.7238 216.786 43.6997 218.998C44.6756 221.21 44.7745 223.241 43.9964 225.092C43.2102 226.924 41.5372 228.404 38.9776 229.533L34.6994 231.421ZM40.4087 220.45C40.1184 219.791 39.7759 219.287 39.3812 218.937C38.9682 218.595 38.5093 218.372 38.0043 218.267C37.4994 218.162 36.9576 218.172 36.379 218.296C35.8004 218.42 35.1912 218.623 34.5513 218.906L29.8343 220.986C29.2309 221.253 28.6924 221.567 28.2186 221.929C27.7449 222.29 27.3765 222.693 27.1136 223.137C26.8506 223.58 26.7062 224.07 26.6804 224.606C26.6363 225.149 26.7513 225.732 27.0256 226.353C27.2998 226.975 27.6525 227.453 28.0838 227.787C28.4968 228.129 28.9557 228.352 29.4606 228.457C29.9656 228.562 30.5114 228.561 31.098 228.456C31.6847 228.35 32.2797 228.164 32.883 227.897L37.6 225.817C38.24 225.534 38.8008 225.221 39.2826 224.878C39.7644 224.534 40.1368 224.141 40.3998 223.697C40.6628 223.253 40.8071 222.764 40.833 222.228C40.8405 221.701 40.6991 221.108 40.4087 220.45Z" fill="white"/>
<path d="M35.4795 201.841L35.3218 201.325L17.1486 206.882L15.9916 203.098L36.0566 196.963L38.318 204.358L20.8636 212.266L21.0214 212.782L39.1946 207.224L40.3516 211.008L20.2866 217.144L18.0251 209.749L35.4795 201.841Z" fill="white"/>
<path d="M30.217 180.351L30.0996 178.376L16.6947 179.173L16.8121 181.148L13.0419 181.372L12.4961 172.186C12.4368 171.188 12.5243 170.302 12.7585 169.528C12.9915 168.733 13.332 168.062 13.78 167.515C14.2267 166.948 14.7815 166.515 15.4443 166.215C16.086 165.897 16.7958 165.715 17.5738 165.668L17.9328 165.647C19.1297 165.576 20.1073 165.858 20.8658 166.494C21.623 167.109 22.1715 167.917 22.5112 168.918L23.0498 168.886C23.2686 167.852 23.7275 166.984 24.4265 166.282C25.1043 165.561 26.0416 165.165 27.2385 165.094L27.5976 165.073C28.3755 165.026 29.1119 165.123 29.8067 165.362C30.4804 165.582 31.0826 165.947 31.6133 166.456C32.1229 166.946 32.5404 167.571 32.8659 168.333C33.1902 169.074 33.382 169.944 33.4413 170.941L33.9871 180.127L30.217 180.351ZM29.8649 174.427L29.6943 171.554C29.6445 170.716 29.4246 170.049 29.0348 169.551C28.6449 169.054 28.031 168.83 27.1932 168.88L27.0137 168.891C26.1759 168.941 25.5929 169.235 25.2646 169.775C24.9364 170.315 24.7971 171.004 24.8469 171.842L25.0176 174.715L29.8649 174.427ZM21.2475 174.939L21.0768 172.066C21.027 171.228 20.8171 170.56 20.4472 170.062C20.0573 169.564 19.4435 169.341 18.6057 169.39L18.4262 169.401C17.5883 169.451 17.0153 169.745 16.707 170.284C16.3788 170.824 16.2395 171.513 16.2893 172.351L16.46 175.223L21.2475 174.939Z" fill="white"/>
<path d="M13.5304 147.55L27.2346 148.365C29.6283 148.507 31.4655 149.257 32.7461 150.614C34.0278 151.951 34.5946 153.867 34.4465 156.36C34.2983 158.853 33.5081 160.698 32.0757 161.894C30.6446 163.07 28.7322 163.587 26.3384 163.445L12.6343 162.631L12.869 158.681L26.5731 159.495C27.8099 159.569 28.7946 159.337 29.5271 158.8C30.2597 158.263 30.6627 157.376 30.7362 156.14C30.8097 154.903 30.5145 153.974 29.8507 153.354C29.1869 152.734 28.2366 152.388 26.9999 152.314L13.2957 151.5L13.5304 147.55Z" fill="white"/>
<path d="M14.4291 144.213L17.1049 129.344L20.822 130.013L19.8345 135.501L36.7679 138.548L36.0671 142.442L19.1337 139.395L18.1462 144.882L14.4291 144.213Z" fill="white"/>
<path d="M18.3981 126.136L22.8158 111.69L26.4275 112.794L24.7971 118.126L41.2504 123.157L40.0934 126.941L23.6401 121.909L22.0098 127.241L18.3981 126.136Z" fill="white"/>
<path d="M31.8659 112.113C29.3794 111.016 27.7248 109.544 26.902 107.695C26.0873 105.829 26.1679 103.79 27.1438 101.577C28.1198 99.3652 29.5676 97.9399 31.4872 97.3016C33.415 96.6449 35.6221 96.8651 38.1086 97.962L42.3868 99.8493C44.9464 100.978 46.6153 102.468 47.3935 104.319C48.1797 106.151 48.0848 108.173 47.1089 110.385C46.133 112.597 44.6994 114.04 42.8082 114.712C40.9251 115.367 38.7037 115.13 36.1441 114L31.8659 112.113ZM43.8179 108.933C44.1083 108.275 44.2497 107.682 44.2422 107.155C44.2163 106.619 44.0719 106.129 43.809 105.686C43.546 105.242 43.1736 104.849 42.6918 104.505C42.21 104.161 41.6492 103.848 41.0092 103.566L36.2922 101.485C35.6889 101.219 35.0939 101.033 34.5072 100.927C33.9206 100.821 33.3748 100.821 32.8698 100.926C32.3649 101.03 31.906 101.254 31.493 101.596C31.0617 101.93 30.709 102.408 30.4348 103.029C30.1605 103.651 30.0455 104.233 30.0896 104.777C30.1154 105.313 30.2598 105.802 30.5228 106.246C30.7857 106.69 31.1541 107.092 31.6278 107.454C32.1016 107.816 32.6401 108.13 33.2435 108.396L37.9605 110.477C38.6004 110.759 39.2096 110.963 39.7882 111.087C40.3668 111.211 40.9086 111.221 41.4135 111.116C41.9185 111.011 42.3774 110.788 42.7904 110.446C43.1851 110.095 43.5276 109.591 43.8179 108.933Z" fill="white"/>
<path d="M54.2392 92.7456L54.5139 92.2812L38.1574 82.6058L40.1719 79.2004L58.231 89.883L54.2937 96.5391L36.6859 88.9792L36.4112 89.4436L52.7676 99.119L50.7532 102.524L32.694 91.8418L36.6314 85.1857L54.2392 92.7456Z" fill="white"/>
<path d="M54.399 62.2028L64.9328 51.3739L67.64 54.0073L63.7525 58.0037L76.0855 70.0005L73.3266 72.8367L60.9937 60.8399L57.1062 64.8363L54.399 62.2028Z" fill="white"/>
<path d="M72.7837 55.8879C71.0737 53.7755 70.2754 51.7094 70.3885 49.6896C70.5173 47.6571 71.5213 45.8803 73.4006 44.3589C75.28 42.8376 77.2192 42.2319 79.2184 42.5418C81.2331 42.8391 83.0954 44.044 84.8053 46.1563L87.7474 49.7908C89.5077 51.9652 90.3108 54.0531 90.157 56.0545C90.0186 58.0433 89.0098 59.7984 87.1304 61.3197C85.2511 62.841 83.3166 63.4686 81.3271 63.2023C79.3531 62.9234 77.486 61.6968 75.7258 59.5223L72.7837 55.8879ZM84.8673 58.524C85.4264 58.0713 85.8232 57.6087 86.0577 57.1361C86.2796 56.648 86.375 56.1465 86.344 55.6318C86.3129 55.117 86.1617 54.5967 85.8902 54.0708C85.6188 53.545 85.2631 53.0102 84.823 52.4666L81.5791 48.4594C81.1642 47.9468 80.7201 47.5094 80.2468 47.1469C79.7734 46.7845 79.2882 46.5345 78.7912 46.397C78.2942 46.2594 77.7839 46.2483 77.2602 46.3637C76.724 46.4635 76.1919 46.7272 75.6638 47.1546C75.1357 47.5821 74.767 48.0477 74.5577 48.5514C74.3358 49.0395 74.2404 49.541 74.2715 50.0557C74.3025 50.5705 74.446 51.0971 74.7019 51.6355C74.9578 52.174 75.2932 52.6995 75.7081 53.212L78.952 57.2192C79.392 57.7628 79.8409 58.2221 80.2988 58.5971C80.7566 58.9721 81.234 59.2284 81.731 59.366C82.228 59.5035 82.7383 59.5146 83.262 59.3993C83.773 59.2684 84.3081 58.9766 84.8673 58.524Z" fill="white"/>
<path d="M108.661 35.8142L116.785 31.9588L121.334 41.5451L118.084 43.0872L117.082 40.975L116.594 41.2063C116.712 42.0132 116.579 42.806 116.197 43.5848C115.806 44.3455 114.997 45.0171 113.769 45.5997C112.902 46.0109 112.013 46.234 111.1 46.2689C110.188 46.3037 109.302 46.138 108.443 45.7718C107.574 45.3875 106.755 44.803 105.985 44.0185C105.206 43.2159 104.516 42.1827 103.917 40.919L101.809 36.4779C101.226 35.2503 100.884 34.0857 100.781 32.9841C100.688 31.856 100.794 30.8213 101.1 29.8801C101.423 28.9303 101.941 28.0873 102.654 27.3511C103.357 26.5968 104.233 25.9713 105.28 25.4743C106.363 24.9603 107.415 24.6825 108.434 24.6408C109.446 24.5812 110.399 24.7259 111.295 25.075C112.182 25.4061 112.98 25.9231 113.69 26.6259C114.391 27.3107 114.968 28.1316 115.422 29.0884L115.577 29.4133L112.002 31.1097L111.848 30.7848C111.308 29.6474 110.603 28.9312 109.733 28.6363C108.873 28.3147 107.91 28.4066 106.845 28.9121C105.834 29.3919 105.166 30.129 104.842 31.1234C104.509 32.0998 104.732 33.4095 105.512 35.0523L107.414 39.0601C108.802 41.9847 110.687 42.8816 113.07 41.7507C114.136 41.2452 114.806 40.5841 115.082 39.7674C115.368 38.9241 115.283 38.0241 114.829 37.0673L110.28 39.2263L108.661 35.8142Z" fill="white"/>
<path d="M118.071 29.5822C117.205 27.0062 117.177 24.7914 117.987 22.9377C118.816 21.0777 120.377 19.7623 122.669 18.9917C124.961 18.221 126.989 18.3294 128.755 19.3168C130.54 20.2979 131.865 22.0764 132.731 24.6524L134.222 29.0845C135.113 31.7362 135.138 33.9731 134.296 35.7953C133.473 37.6111 131.916 38.9043 129.624 39.675C127.332 40.4457 125.3 40.3594 123.528 39.4162C121.775 38.4667 120.453 36.666 119.561 34.0143L118.071 29.5822ZM128.477 36.2657C129.159 36.0364 129.693 35.7411 130.077 35.3799C130.455 34.9997 130.719 34.563 130.87 34.0697C131.02 33.5764 131.06 33.036 130.989 32.4485C130.918 31.861 130.771 31.2358 130.548 30.5729L128.904 25.6862C128.694 25.0611 128.431 24.4963 128.113 23.9916C127.796 23.4869 127.428 23.0834 127.011 22.7812C126.593 22.479 126.118 22.2906 125.587 22.2162C125.05 22.1229 124.459 22.1844 123.815 22.401C123.171 22.6176 122.663 22.9254 122.292 23.3245C121.913 23.7046 121.649 24.1413 121.499 24.6346C121.348 25.1279 121.299 25.6715 121.351 26.2654C121.404 26.8593 121.535 27.4687 121.745 28.0938L123.388 32.9805C123.611 33.6434 123.872 34.2304 124.17 34.7415C124.468 35.2525 124.827 35.6592 125.244 35.9614C125.662 36.2636 126.137 36.4519 126.668 36.5264C127.192 36.5819 127.796 36.4949 128.477 36.2657Z" fill="white"/>
<path d="M151.641 13.4827L166.691 12.1702L167.019 15.9328L161.465 16.4171L162.959 33.5574L159.018 33.9012L157.523 16.7608L151.969 17.2452L151.641 13.4827Z" fill="white"/>
<path d="M169.685 20.7186C169.771 18.0023 170.517 15.9167 171.922 14.4618C173.348 13.0076 175.269 12.3188 177.686 12.3955C180.103 12.4722 181.966 13.281 183.277 14.8221C184.608 16.3638 185.23 18.4928 185.144 21.2091L184.995 25.8828C184.907 28.679 184.15 30.7843 182.726 32.1986C181.321 33.6135 179.411 34.2826 176.994 34.2059C174.577 34.1293 172.703 33.34 171.371 31.8383C170.059 30.3372 169.448 28.1885 169.536 25.3923L169.685 20.7186ZM177.108 30.6108C177.827 30.6336 178.43 30.5428 178.916 30.3383C179.403 30.1138 179.803 29.7966 180.116 29.3867C180.429 28.9768 180.654 28.4841 180.792 27.9087C180.931 27.3333 181.011 26.6961 181.033 25.997L181.197 20.844C181.217 20.1849 181.167 19.5635 181.046 18.9798C180.924 18.3962 180.721 17.8899 180.434 17.461C180.148 17.032 179.769 16.6901 179.297 16.4352C178.826 16.1604 178.251 16.0122 177.572 15.9906C176.893 15.9691 176.309 16.0805 175.822 16.3249C175.335 16.5494 174.935 16.8666 174.622 17.2765C174.309 17.6864 174.074 18.1788 173.915 18.7536C173.757 19.3284 173.668 19.9453 173.647 20.6044L173.483 25.7574C173.461 26.4565 173.501 27.0975 173.602 27.6805C173.704 28.2636 173.898 28.7695 174.184 29.1985C174.47 29.6274 174.849 29.9693 175.321 30.2242C175.793 30.4591 176.389 30.588 177.108 30.6108Z" fill="white"/>
<path d="M211.736 38.4154L212.257 38.5589L217.31 20.2391L221.124 21.2912L215.545 41.518L208.09 39.4618L210.773 20.4885L210.253 20.345L205.2 38.6647L201.386 37.6127L206.965 17.3858L214.42 19.4421L211.736 38.4154Z" fill="white"/>
<path d="M225.177 23.2418L237.442 28.2523L236.014 31.7486L227.412 28.2345L225.598 32.6742L233.867 36.0523L232.439 39.5486L224.17 36.1705L222.333 40.6657L231.268 44.3159L229.84 47.8122L217.242 42.6656L225.177 23.2418Z" fill="white"/>
<path d="M244.451 32.3426L243.384 41.5548L244.013 41.9038L251.265 36.1236L255.013 38.2031L246.295 45.0206L246.033 45.4924L244.834 56.5505L241.086 54.471L242.181 45.2063L241.552 44.8573L234.271 50.69L230.523 48.6104L239.271 41.7405L239.532 41.2687L240.703 30.263L244.451 32.3426Z" fill="white"/>
<path d="M257.083 40.1541L269.332 48.9962L267.122 52.0585L262.601 48.7954L252.531 62.7458L249.323 60.43L259.393 46.4795L254.873 43.2164L257.083 40.1541Z" fill="white"/>
<path d="M287.179 77.2299C287.816 76.684 288.156 75.9592 288.197 75.0554C288.252 74.1667 287.896 73.2746 287.129 72.3791C286.479 71.6202 285.806 71.1571 285.111 70.9899C284.43 70.8096 283.824 70.947 283.293 71.4019C283.02 71.6358 282.815 71.9034 282.678 72.2046C282.557 72.4928 282.515 72.844 282.554 73.258C282.621 73.6741 282.768 74.1532 282.996 74.6952C283.236 75.2524 283.581 75.9168 284.032 76.6887C285.158 78.6183 285.741 80.3287 285.782 81.8199C285.822 83.3112 285.144 84.6547 283.748 85.8504L283.474 86.0844C282.731 86.7212 281.938 87.163 281.097 87.4097C280.284 87.6586 279.451 87.7145 278.597 87.5775C277.743 87.4406 276.897 87.1129 276.058 86.5944C275.22 86.076 274.417 85.369 273.65 84.4735C272.753 83.4262 272.105 82.3768 271.704 81.3254C271.332 80.2762 271.176 79.265 271.238 78.2918C271.314 77.3056 271.584 76.377 272.048 75.5059C272.528 74.6218 273.185 73.8224 274.02 73.1075L274.703 72.5226L277.276 75.528L276.73 75.9959C275.774 76.8147 275.241 77.7443 275.132 78.7846C275.052 79.8271 275.512 80.9328 276.512 82.1015C277.292 83.0122 278.068 83.5187 278.839 83.621C279.611 83.7232 280.27 83.5404 280.816 83.0725C281.074 82.8515 281.278 82.598 281.428 82.312C281.593 82.013 281.669 81.6716 281.656 81.288C281.658 80.8913 281.567 80.4307 281.38 79.9061C281.194 79.3815 280.894 78.7701 280.481 78.072C279.929 77.1505 279.473 76.2649 279.113 75.4151C278.769 74.5523 278.565 73.7144 278.5 72.9016C278.448 72.104 278.579 71.3346 278.891 70.5934C279.204 69.8523 279.755 69.1438 280.544 68.468L280.681 68.351C281.333 67.7921 282.043 67.4077 282.811 67.1979C283.606 66.9902 284.41 66.9461 285.223 67.0657C286.049 67.2005 286.862 67.5044 287.661 67.9773C288.474 68.4653 289.237 69.1268 289.952 69.9616C290.758 70.9027 291.336 71.8545 291.687 72.817C292.053 73.7665 292.216 74.6791 292.177 75.5547C292.15 76.4455 291.945 77.2658 291.561 78.0156C291.19 78.7805 290.678 79.4424 290.025 80.0013L289.206 80.7032L286.632 77.6978L287.179 77.2299Z" fill="white"/>
<path d="M296.757 79.7902L298.956 83.0791L284.654 92.6435L289.953 100.567L286.813 102.666L279.315 91.454L296.757 79.7902Z" fill="white"/>
<path d="M306.231 95.3359L312.593 107.838L309.227 109.551L306.943 105.063L294.975 111.153L297.259 115.641L293.893 117.354L287.531 104.852L290.897 103.139L293.181 107.627L305.149 101.537L302.865 97.0488L306.231 95.3359Z" fill="white"/>
<path d="M313.663 111.427L316.288 118.574C317.184 121.012 317.276 123.033 316.566 124.635C315.875 126.23 314.338 127.465 311.956 128.34L306.216 130.448C303.834 131.323 301.854 131.38 300.275 130.619C298.716 129.85 297.488 128.247 296.593 125.809L293.967 118.662L297.541 117.349L298.223 119.206L310.8 114.586L310.118 112.729L313.663 111.427ZM300.138 124.506C300.613 125.801 301.244 126.591 302.03 126.877C302.842 127.175 303.895 127.086 305.19 126.61L310.592 124.626C311.717 124.213 312.474 123.636 312.863 122.898C313.258 122.178 313.218 121.17 312.743 119.876L312.164 118.301L299.559 122.931L300.138 124.506Z" fill="white"/>
<path d="M319.656 130.07L322.719 142.96L319.045 143.833L316.896 134.793L312.23 135.902L314.296 144.592L310.621 145.465L308.556 136.775L303.832 137.898L306.063 147.288L302.389 148.161L299.242 134.922L319.656 130.07Z" fill="white"/>
<defs>
<filter id="filter0_dddd_59_2684" x="23.3692" y="54.8994" width="260.261" height="255.261" filterUnits="userSpaceOnUse" color-interpolation-filters="sRGB">
<feFlood flood-opacity="0" result="BackgroundImageFix"/>
<feColorMatrix in="SourceAlpha" type="matrix" values="0 0 0 0 0 0 0 0 0 0 0 0 0 0 0 0 0 0 127 0" result="hardAlpha"/>
<feOffset dx="-1" dy="1"/>
<feGaussianBlur stdDeviation="2"/>
<feComposite in2="hardAlpha" operator="out"/>
<feColorMatrix type="matrix" values="0 0 0 0 0 0 0 0 0 0 0 0 0 0 0 0 0 0 0.26 0"/>
<feBlend mode="normal" in2="BackgroundImageFix" result="effect1_dropShadow_59_2684"/>
<feColorMatrix in="SourceAlpha" type="matrix" values="0 0 0 0 0 0 0 0 0 0 0 0 0 0 0 0 0 0 127 0" result="hardAlpha"/>
<feOffset dx="-5" dy="4"/>
<feGaussianBlur stdDeviation="3"/>
<feComposite in2="hardAlpha" operator="out"/>
<feColorMatrix type="matrix" values="0 0 0 0 0 0 0 0 0 0 0 0 0 0 0 0 0 0 0.23 0"/>
<feBlend mode="normal" in2="effect1_dropShadow_59_2684" result="effect2_dropShadow_59_2684"/>
<feColorMatrix in="SourceAlpha" type="matrix" values="0 0 0 0 0 0 0 0 0 0 0 0 0 0 0 0 0 0 127 0" result="hardAlpha"/>
<feOffset dx="-12" dy="9"/>
<feGaussianBlur stdDeviation="4.5"/>
<feComposite in2="hardAlpha" operator="out"/>
<feColorMatrix type="matrix" values="0 0 0 0 0 0 0 0 0 0 0 0 0 0 0 0 0 0 0.13 0"/>
<feBlend mode="normal" in2="effect2_dropShadow_59_2684" result="effect3_dropShadow_59_2684"/>
<feColorMatrix in="SourceAlpha" type="matrix" values="0 0 0 0 0 0 0 0 0 0 0 0 0 0 0 0 0 0 127 0" result="hardAlpha"/>
<feOffset dx="-21" dy="16"/>
<feGaussianBlur stdDeviation="5"/>
<feComposite in2="hardAlpha" operator="out"/>
<feColorMatrix type="matrix" values="0 0 0 0 0 0 0 0 0 0 0 0 0 0 0 0 0 0 0.04 0"/>
<feBlend mode="normal" in2="effect3_dropShadow_59_2684" result="effect4_dropShadow_59_2684"/>
<feBlend mode="normal" in="SourceGraphic" in2="effect4_dropShadow_59_2684" result="shape"/>
</filter>
<linearGradient id="paint0_linear_59_2684" x1="186.167" y1="-71.8697" x2="-69.384" y2="114.155" gradientUnits="userSpaceOnUse">
<stop stop-color="#323232"/>
<stop offset="1" stop-color="#141414"/>
</linearGradient>
</defs>
</svg>
