<svg width="207" height="207" viewBox="0 0 207 207" fill="none" xmlns="http://www.w3.org/2000/svg">
<g id="mdi:virtual-meeting">
<path id="Vector" d="M172.5 34.5C177.075 34.5 181.463 36.3174 184.698 39.5524C187.933 42.7874 189.75 47.175 189.75 51.75V138C189.75 147.574 182.074 155.25 172.5 155.25H207V172.5H0V155.25H34.5C29.925 155.25 25.5374 153.433 22.3024 150.198C19.0674 146.963 17.25 142.575 17.25 138V51.75C17.25 42.1762 24.9263 34.5 34.5 34.5H172.5ZM172.5 51.75H34.5V138H172.5V51.75ZM103.5 103.5C122.561 103.5 138 111.262 138 120.75V129.375H69V120.75C69 111.262 84.4388 103.5 103.5 103.5ZM103.5 60.375C108.075 60.375 112.463 62.1924 115.698 65.4274C118.933 68.6624 120.75 73.05 120.75 77.625C120.75 82.2 118.933 86.5876 115.698 89.8226C112.463 93.0576 108.075 94.875 103.5 94.875C93.9262 94.875 86.25 87.1987 86.25 77.625C86.25 68.0513 94.0125 60.375 103.5 60.375Z" fill="white"/>
</g>
</svg>
