<svg width="163" height="163" viewBox="0 0 163 163" fill="none" xmlns="http://www.w3.org/2000/svg">
<g id="simple-icons:notion" clip-path="url(#clip0_59_2755)">
<path id="Vector" d="M30.2841 28.5794C35.3506 32.6951 37.2523 32.3827 46.7742 31.7443L136.526 26.3585C138.428 26.3585 136.845 24.4568 136.214 24.1444L121.299 13.366C118.447 11.1519 114.637 8.61186 107.342 9.24348L20.4429 15.5869C17.278 15.8993 16.6396 17.4886 17.9028 18.7518L30.2841 28.5794ZM35.6698 49.4977V143.929C35.6698 149.002 38.2031 150.904 43.9149 150.585L142.55 144.88C148.262 144.567 148.9 141.077 148.9 136.954V43.1543C148.9 39.0385 147.318 36.8177 143.82 37.1301L40.7432 43.1543C36.9399 43.4735 35.6698 45.3819 35.6698 49.4977ZM133.042 54.5575C133.674 57.41 133.042 60.2625 130.189 60.5885L125.435 61.5393V131.249C121.306 133.47 117.503 134.74 114.331 134.74C109.251 134.74 107.981 133.151 104.177 128.403L73.0919 79.5984V126.814L82.9263 129.042C82.9263 129.042 82.9263 134.747 74.9936 134.747L53.1108 136.01C52.4792 134.747 53.1108 131.575 55.3317 130.943L61.0367 129.361V66.9251L53.1244 66.2867C52.486 63.4342 54.0753 59.3185 58.5102 58.9992L81.9822 57.4168L114.338 106.853V63.115L106.086 62.171C105.454 58.68 107.988 56.1467 111.159 55.8343L133.042 54.5575ZM13.1487 7.0294L103.546 0.373566C114.643 -0.577267 117.503 0.0543576 124.478 5.12773L153.335 25.4077C158.09 28.8918 159.679 29.8426 159.679 33.6459V144.88C159.679 151.848 157.146 155.977 148.269 156.602L43.2833 162.946C36.6275 163.265 33.449 162.314 29.958 157.872L8.70693 130.298C4.90359 125.225 3.32114 121.428 3.32114 116.986V18.1134C3.32114 12.4152 5.86122 7.65423 13.1487 7.0294Z" fill="#F2F4F6"/>
</g>
<defs>
<clipPath id="clip0_59_2755">
<rect width="163" height="163" fill="white"/>
</clipPath>
</defs>
</svg>
